<?xml version="1.0" encoding="UTF-8"?>
<svg width="70px" height="70px" viewBox="0 0 70 70" version="1.1" xmlns="http://www.w3.org/2000/svg"
>
    <g id="Symbols" stroke="none" stroke-width="1" fill="none" fill-rule="evenodd">
        <g id="iogreed">
            <circle id="Oval" fill="#000000" cx="35" cy="35" r="35"></circle>
            <path d="M34.2753001,3 L35.6703001,3 C39.2130001,3.0823806 42.6174001,3.714408 45.8837001,4.89608 C57.0762001,8.94602 65.2010001,19.0062 66.7289001,30.8216 C69.1793001,49.7709 54.7140001,66.585 35.6207001,67 L34.3696001,67 C28.4214001,66.8562 22.9613001,65.2276 17.9894001,62.1143 C11.7489701,58.207 7.00012014,52.1653 4.63832014,45.1426 C3.06703574,40.4712 2.63834214,35.4801 3.29909714,30.5993 C4.80041014,19.5124 12.1515301,9.99748 22.3512001,5.59278 C26.1070001,3.970851 30.0817001,3.106593 34.2753001,3 Z M31.2616001,15.3017 L38.7518001,15.3017 C38.7549001,15.3017 38.7579001,15.3005 38.7601001,15.2982 C38.7623001,15.296 38.7636001,15.293 38.7637001,15.2898 L38.8749082,9.73129 C38.8752001,9.71446 38.8671001,9.70487 38.8505001,9.70251 C36.3286001,9.3281 33.8054001,9.32175 31.2811001,9.68346 C31.2695001,9.68508 31.2589001,9.69089 31.2513001,9.69978 C31.2438001,9.70868 31.2397001,9.72005 31.2398931,9.73174 C31.2685001,11.58132 31.2687001,13.4309 31.2404001,15.2805 C31.2404001,15.2946 31.2474001,15.3017 31.2616001,15.3017 Z M9.56387014,37.7761 C10.5240001,46.5988 16.0306001,54.3351 24.0766001,58.1405 C24.0777001,58.1412246 24.0789001,58.1412246 24.0801001,58.1412246 C24.0813001,58.1412246 24.0825001,58.1412246 24.0835001,58.1401 C24.0846001,58.1394 24.0854001,58.1385 24.0860001,58.1374 C24.0865001,58.1363 24.0868001,58.1351 24.0867001,58.1339 C24.0885001,55.4481 24.1058001,52.7663 24.0828001,50.0792 C24.0825001,50.0647 24.0767001,50.0528 24.0655001,50.0433 C18.7046001,45.5607 16.1851001,37.9746 17.1426001,31.1441 C17.8304001,26.2344 20.3184001,21.9258 24.1913001,18.8392 C24.2031001,18.8298 24.2088001,18.8175 24.2085114,18.8025 L24.0934001,11.88205 C24.0934001,11.87845 24.0925001,11.87491 24.0907001,11.87177 C24.0890001,11.86863 24.0864001,11.86598 24.0834001,11.86408 C24.0803001,11.86217 24.0768001,11.8608605 24.0732001,11.8608605 C24.0697001,11.8608605 24.0661001,11.86143 24.0628001,11.863 C14.2352001,16.5547 8.37832014,26.8837 9.56387014,37.7761 Z M49.1751001,18.2138 L49.1751001,25.6857 C49.1751001,25.6939 49.1718001,25.7018 49.1660001,25.7076 C49.1602001,25.7134 49.1523001,25.7167 49.1441001,25.7167 L43.0711001,25.7207 C43.0563001,25.7207 43.0439001,25.7151 43.0339001,25.7038 C40.8040001,23.2058 36.7611001,22.5503 33.6340001,23.1717 C29.5898001,23.9752 26.3679001,26.7916 25.1341001,30.7361 C24.8250001,31.7229 24.6629001,32.7456 24.6062001,33.7931 C24.3383001,38.7448 27.2882001,42.9998 31.6496001,45.1076 C33.3701001,45.9389 35.2270001,46.3517 37.1238001,46.0793 C37.9777001,45.9566 38.7934001,45.7228 39.5060001,45.2502 C40.3961001,44.6593 41.0392001,43.6225 41.0463001,42.5183 C41.0557001,41.0656 41.0476001,39.6132 41.0219001,38.161 C41.0217001,38.1537 41.0186001,38.1467 41.0134001,38.1416 C41.0082001,38.1364 41.0013001,38.1336 40.9940001,38.1336 L36.4467001,38.1336 C36.3997001,38.1336 36.3763001,38.1101 36.3763001,38.0631 L36.3763001,31.645 C36.3763001,31.6228 36.3873001,31.6118 36.4095001,31.6118 L49.1529001,31.6118 C49.1677001,31.6118 49.1751001,31.6191 49.1751001,31.6339 L49.1751001,49.9029 C49.1751001,49.9114 49.1728001,49.9197 49.1685001,49.9269 C49.1642001,49.9342 49.1581001,49.9401 49.1507001,49.9441 L45.9293001,51.6768 C45.9232001,51.6801 45.9180001,51.685 45.9144001,51.6909 C45.9109001,51.6968 45.9090001,51.7036 45.9089001,51.7104 L45.9089001,58.1202 C45.9089001,58.1379 45.9171001,58.1433 45.9333001,58.1366 C46.0390001,58.0914 46.1429001,58.0434 46.2451001,57.9926 C54.2445001,54.0189 59.6922001,46.2423 60.4792001,37.3053 C61.4260001,26.556 55.6418001,16.5166 45.9506001,11.86965 C45.9471001,11.868 45.9433001,11.8674394 45.9395001,11.8674394 C45.9357001,11.8674394 45.9320001,11.86888 45.9288001,11.87092 C45.9256001,11.87295 45.9229001,11.87577 45.9210001,11.87911 C45.9192001,11.88245 45.9182001,11.8862 45.9182001,11.89002 L45.9178001,18.178 C45.9178001,18.1816 45.9192001,18.1851 45.9217001,18.1877 C45.9242001,18.1902 45.9276001,18.1917 45.9311001,18.1917 L49.1529001,18.1917 C49.1677001,18.1917 49.1751001,18.1991 49.1751001,18.2138 Z M31.2528001,53.3142 C31.2475001,53.3142 31.2425001,53.3157 31.2380001,53.3183 C31.2335001,53.321 31.2298001,53.3247 31.2272001,53.3293 C31.2247001,53.3338 31.2234001,53.3389 31.2234001,53.3441 C31.2235001,53.3493 31.2249001,53.3544 31.2275001,53.3589 L31.2342001,53.37 C31.2377001,53.3759 31.2395001,53.3821 31.2395001,53.3886 L31.2386001,60.3015 C31.2385001,60.3042 31.2395001,60.3068 31.2413001,60.3089 C31.2431001,60.311 31.2456001,60.3125 31.2483001,60.313 C33.7490001,60.6726 36.2497001,60.6726 38.7505001,60.313 C38.7578001,60.3119 38.7645001,60.3083 38.7694001,60.3027 C38.7743001,60.297 38.7770001,60.2899 38.7770001,60.2824 L38.7735001,53.3306 C38.7735001,53.3262 38.7717001,53.3221 38.7686001,53.319 C38.7654001,53.3159 38.7611001,53.3142 38.7567001,53.3142 L31.2528001,53.3142 Z"
                  id="Shape" fill="#FEBA4F" fill-rule="nonzero"></path>
        </g>
    </g>
</svg>