<svg width="32" height="37" viewBox="0 0 32 37" fill="none" xmlns="http://www.w3.org/2000/svg">
<g id="icon-prize-cup-small" filter="url(#filter0_d_1_2885)">
<g id="Group">
<path id="Path" d="M21.0058 6.50934C21.0486 6.70897 21.0005 6.89078 20.8614 7.05477C20.7545 7.1831 20.6172 7.25262 20.4497 7.26331L19.5674 7.32213" stroke="#805F10"/>
<path id="Path_2" d="M19.5676 7.32212C20.1451 5.59315 19.8974 4.20284 18.8243 3.15119C15.648 0.0336934 11.0332 4.10837 13.1134 7.58414C13.2595 7.82655 13.4716 7.89429 13.7497 7.78734C13.9244 7.72317 13.9725 7.60731 13.8941 7.43976L13.1989 5.92646C13.1922 5.91186 13.199 5.89356 13.215 5.88369L13.3273 5.80882C13.3305 5.80542 13.3369 5.8081 13.3451 5.81622C13.3532 5.82434 13.3622 5.83717 13.37 5.8516L14.3379 7.49858C14.4728 7.72838 14.7241 7.86432 14.9903 7.85151L17.5356 7.74991C17.6607 7.74297 17.7805 7.69615 17.8778 7.61622C18.598 6.9995 18.9063 6.23661 18.8029 5.32756C18.795 5.24125 18.7369 5.16773 18.6548 5.13997C18.5727 5.11222 18.482 5.13544 18.4233 5.19923C17.7745 5.89082 17.0098 6.44516 16.1293 6.86225C15.5731 7.12249 15.1329 6.99059 14.8085 6.46655L14.5304 6.01737C14.3867 5.78291 14.3489 5.49859 14.4263 5.23471C14.5037 4.97083 14.6892 4.75203 14.9368 4.63241L16.6266 3.79822C16.6872 3.7697 16.7317 3.78575 16.7602 3.84635L16.8351 4.00677C16.8601 4.06737 16.844 4.11015 16.787 4.1351L14.9796 4.98533C14.8537 5.04522 14.7596 5.15621 14.7216 5.28956C14.6837 5.42291 14.7056 5.56553 14.7817 5.68049L15.2469 6.38099C15.4537 6.69113 15.7104 6.73926 16.017 6.52537L18.0971 5.08693C18.1729 5.03433 18.2196 4.94923 18.2238 4.85625C18.228 4.76328 18.1891 4.67281 18.1185 4.61102C18.0115 4.51833 17.8921 4.44703 17.7602 4.39712C17.7118 4.38282 17.68 4.33666 17.6839 4.28636C17.6878 4.23607 17.7263 4.19532 17.7762 4.18858C17.9081 4.16006 17.9759 4.06915 17.9794 3.91586C17.9787 3.827 17.9218 3.75043 17.8404 3.72871C17.4554 3.62176 17.1381 3.42391 16.8886 3.13515C16.7567 2.98186 16.5909 2.91591 16.3913 2.9373C15.0972 3.07277 14.222 3.72514 13.7657 4.89443C13.6695 5.14397 13.6071 5.13684 13.5786 4.87304C13.5251 4.37039 13.6748 3.97468 14.0278 3.68593C15.6926 2.33483 17.1666 2.38831 18.45 3.84635C18.8992 4.35969 18.9901 5.0495 19.1986 5.70722C19.2485 5.85695 19.2378 6.00311 19.1666 6.14571L18.5035 7.47719C18.4037 7.67326 18.4625 7.78556 18.6799 7.81408C18.8903 7.8426 19.0614 7.7606 19.1933 7.5681C19.3644 7.31856 19.4892 7.23656 19.5676 7.32212" stroke="#806A1B"/>
<path id="Path_3" d="M19.5674 7.32213C19.6387 7.34352 19.6904 7.40234 19.7225 7.49859C19.7545 7.59484 19.8205 7.64297 19.9203 7.64297L25.781 7.782C26.0127 7.78913 26.0822 7.68575 25.9895 7.47185C25.0484 5.32935 23.4692 4.91582 21.2518 6.23127" stroke="#805F10"/>
<path id="Path_4" d="M8.49867 5.45055C8.71411 5.62905 9.00431 5.6885 9.27258 5.60909C9.54085 5.52969 9.75194 5.32186 9.83551 5.05485L10.5307 2.86244C10.5995 2.64254 10.5749 2.40402 10.4626 2.20279C10.3504 2.00157 10.1604 1.85532 9.93711 1.79832L8.26874 1.37053C7.93505 1.28528 7.58314 1.41247 7.38108 1.69137L6.55759 2.81431C6.29802 3.17269 6.36119 3.67102 6.70196 3.9533L8.49867 5.45055" stroke="#735704"/>
<path id="Path_5" d="M8.53599 7.66436L12.2096 7.66971C12.3772 7.66971 12.4413 7.58772 12.4021 7.42373C12.1668 6.42556 11.5448 5.83735 10.5359 5.65911C10.3363 5.62614 10.1339 5.69901 10.0012 5.85161C9.74092 6.16176 9.41117 6.30436 9.0119 6.2794C8.74347 6.26622 8.48921 6.39437 8.34348 6.61628L8.14028 6.92108C7.80875 7.41304 7.94065 7.6608 8.53599 7.66436" stroke="#735704"/>
<path id="Path_6" d="M26.0589 8.95839C26.0589 8.793 25.9248 8.65894 25.7595 8.65894H5.65346C5.48807 8.65894 5.354 8.793 5.354 8.95839L5.354 9.57868C5.354 9.6581 5.38555 9.73426 5.44171 9.79042C5.49787 9.84658 5.57404 9.87813 5.65346 9.87813H25.7595C25.8389 9.87813 25.915 9.84658 25.9712 9.79042C26.0274 9.73426 26.0589 9.6581 26.0589 9.57868V8.95839" stroke="#80773F"/>
<path id="Path_7" d="M15.7068 10.83L10.8247 10.8781" stroke="#806A1B"/>
<path id="Path_8" d="M10.8246 10.8781L8.61084 10.8461" stroke="#808080"/>
<path id="Path_9" d="M8.61074 10.846C6.96376 10.9423 4.40773 10.429 3.03346 11.2097C1.51838 12.0652 0.86779 13.3165 1.08168 14.9635C1.50947 18.2254 4.82482 20.3055 7.89955 20.7493C8.07423 20.7743 8.21682 20.8545 8.32733 20.99C9.81389 22.8348 10.3486 24.1128 12.787 24.8721C16.8189 26.1288 20.9524 25.086 23.0646 21.1343C23.1431 20.9848 23.2833 20.8757 23.4496 20.8349C23.856 20.7315 24.3747 20.6103 25.0057 20.4713C27.8665 19.8403 31.9358 16.1667 29.9948 12.739C29.2497 11.4236 28.3389 10.773 27.2623 10.7872C23.3302 10.8371 19.4783 10.8514 15.7067 10.83" stroke="#805510"/>
<path id="Path_10" d="M8.61084 10.846L9.2846 16.2682" stroke="#FFD58D"/>
<path id="Path_11" d="M9.28439 16.2682C8.81382 16.3359 8.29513 16.3038 7.72831 16.1719C7.53581 16.1256 7.42173 16.0044 7.38608 15.8083L6.80857 12.3219C6.77649 12.1436 6.67132 12.042 6.49308 12.0171C5.31666 11.8673 4.12955 11.7978 3.17772 12.5892C-0.0413755 15.2576 4.96908 18.9312 7.50372 19.5515C7.69623 19.5978 7.81743 19.5265 7.86734 19.3376L7.92082 19.1344C7.9636 18.9775 8.06698 18.9044 8.23096 18.9151C8.91186 18.9543 9.40025 19.0613 9.69613 19.236" stroke="#805510"/>
<path id="Path_12" d="M9.69629 19.236C10.3201 22.0131 12.1151 23.6226 15.0811 24.0647C15.5837 24.136 15.8457 23.9185 15.8671 23.4123C15.8743 23.1948 15.7245 23.0736 15.4179 23.0487" stroke="#FFD58D"/>
<path id="Path_13" d="M15.418 23.0487C15.6639 22.3909 15.8083 22.1075 15.7174 21.3108C15.6497 20.6762 15.8279 20.0666 16.2522 19.482" stroke="#FFBF27"/>
<path id="Path_14" d="M16.2522 19.482L23.3802 18.9472C23.5121 18.9401 23.5941 18.9989 23.6262 19.1237L23.6904 19.359C23.7275 19.4933 23.8628 19.574 23.9952 19.5408C26.5405 18.8938 31.6044 15.2896 28.3853 12.5892C27.4389 11.7871 26.2464 11.8834 25.07 11.9796C24.8561 11.9975 24.7313 12.1115 24.6957 12.3219L24.1449 15.8404C24.122 15.9874 24.008 16.1035 23.8615 16.1292C21.2876 16.5784 18.6621 16.7512 15.9849 16.6479" stroke="#805510"/>
<path id="Path_15" d="M15.9845 16.6479L15.7065 10.83" stroke="#FFBF27"/>
<path id="Path_16" d="M10.8244 10.8781L11.3324 16.5142" stroke="#FFEA98"/>
<path id="Path_17" d="M11.3327 16.5142L9.28467 16.2682" stroke="#808080"/>
<path id="Path_18" d="M16.2522 19.482L12.1348 19.3964" stroke="#806A1B"/>
<path id="Path_19" d="M12.1347 19.3964L9.69629 19.236" stroke="#808080"/>
<path id="Path_20" d="M15.9847 16.6479L11.3325 16.5142" stroke="#806A1B"/>
<path id="Path_21" d="M12.1346 19.3964C11.6694 21.3054 13.787 22.9524 15.4179 23.0487" stroke="#FFEA98"/>
<path id="Path_22" d="M12.1722 27.626L12.5626 28.134C12.698 28.3122 12.6624 28.4406 12.4556 28.519C11.322 28.9575 10.5734 30.5938 9.8996 31.5884C9.78909 31.7559 9.83186 31.8611 10.0279 31.9039C10.4486 31.9965 10.798 31.9769 11.076 31.845" stroke="#805510"/>
<path id="Path_23" d="M11.0757 31.8451L13.4071 31.8718" stroke="#808080"/>
<path id="Path_24" d="M13.4072 31.8718L15.9846 31.9145" stroke="#806A1B"/>
<path id="Path_25" d="M15.9846 31.9146L21.5565 31.9092C21.7775 31.9056 21.8292 31.8112 21.7116 31.6258L20.0378 29.0216C19.9523 28.8826 19.8329 28.781 19.6796 28.7168L18.6957 28.3051C18.4319 28.191 18.4425 28.1215 18.7277 28.0966C19.6849 28.0163 20.2945 27.1501 20.086 26.2945C20.0396 26.1091 19.9202 26.02 19.7277 26.0271L15.915 26.1929" stroke="#805510"/>
<path id="Path_26" d="M15.9153 26.1929L11.8406 26.0271C11.6481 26.02 11.5447 26.1127 11.5305 26.3052C11.477 27.0075 11.6909 27.4477 12.1722 27.626" stroke="#806F32"/>
<path id="Path_27" d="M15.915 26.1929C16.2715 27.3301 15.0238 27.8078 12.1719 27.626" stroke="#FFC43F"/>
<path id="Path_28" d="M15.9846 31.9146C15.7565 30.9841 15.7048 30.0323 15.8296 29.0591C15.8495 28.8881 15.7625 28.7225 15.6103 28.642C15.1825 28.421 14.7779 28.535 14.3965 28.9842" stroke="#FFBF27"/>
<path id="Path_29" d="M14.3964 28.9842L13.1184 29.1072C12.9401 29.125 12.8029 29.2088 12.7066 29.3585L11.0757 31.845" stroke="#FFD58D"/>
<path id="Path_30" d="M13.4072 31.8718L14.3965 28.9842" stroke="#FFEA98"/>
<path id="Path_31" d="M23.4335 33.2888C23.4335 33.023 23.2181 32.8076 22.9523 32.8076H8.6214C8.3556 32.8076 8.14014 33.023 8.14014 33.2888L8.14014 33.6952C8.14014 33.961 8.3556 34.1765 8.6214 34.1765H22.9523C23.2181 34.1765 23.4335 33.961 23.4335 33.6952V33.2888" stroke="#806F32"/>
<path id="Path_32" d="M11.675 18.6799C15.6498 18.9793 19.5569 18.8795 23.3963 18.3804C23.6102 18.3519 23.7421 18.2307 23.792 18.0168L23.9632 17.2575C24.0594 16.8297 23.8919 16.6532 23.4605 16.7281C19.3056 17.4232 15.4395 17.2254 11.3809 17.2307" stroke="#805F10"/>
<path id="Path_33" d="M11.3807 17.2307L7.8354 16.7548C7.76943 16.7456 7.7029 16.7677 7.65638 16.8142C7.60986 16.8607 7.58895 16.9261 7.60012 16.9901L7.76054 18.0542C7.78226 18.2039 7.904 18.319 8.05464 18.3323L11.6748 18.6798" stroke="#807E62"/>
<path id="Path_34" d="M11.3807 17.2308C11.8406 17.2058 11.9386 17.6889 11.6748 18.6799" stroke="#FEDD6F"/>
<path id="Path_35" d="M29.0703 26.5075C28.7333 25.6341 27.4974 25.2975 26.3099 25.7558C25.7397 25.9758 25.257 26.3535 24.9682 26.8056C24.6794 27.2578 24.6081 27.7475 24.77 28.1669C25.107 29.0403 26.3429 29.3769 27.5304 28.9187C28.1007 28.6987 28.5833 28.321 28.8721 27.8688C29.1609 27.4166 29.2322 26.927 29.0703 26.5075" stroke="#735704"/>
<path id="Path_36" d="M6.1164 28.0212C6.40522 27.5127 6.2272 26.8664 5.71877 26.5776L4.68657 25.9913C4.17814 25.7024 3.53183 25.8805 3.243 26.3889L2.26043 28.1185C1.9716 28.6269 2.14962 29.2732 2.65806 29.5621L3.69025 30.1484C4.19869 30.4372 4.84499 30.2592 5.13382 29.7508L6.1164 28.0212" stroke="#735704"/>
</g>
<path id="Shape" fill-rule="evenodd" clip-rule="evenodd" d="M21.0057 6.50935C21.0484 6.70899 21.0003 6.8908 20.8613 7.05478C20.7543 7.18312 20.6171 7.25263 20.4495 7.26333L19.5672 7.32215C20.1447 5.59317 19.897 4.20287 18.8239 3.15122C15.6476 0.0337215 11.0329 4.1084 13.113 7.58417C13.2591 7.82658 13.4713 7.89431 13.7493 7.78737C13.924 7.7232 13.9721 7.60734 13.8937 7.43979L13.1985 5.92649C13.1918 5.91188 13.1986 5.89359 13.2146 5.88371L13.3269 5.80885C13.3301 5.80544 13.3366 5.80812 13.3447 5.81625C13.3528 5.82437 13.3619 5.8372 13.3697 5.85163L14.3375 7.49861C14.4724 7.72841 14.7237 7.86435 14.9899 7.85154L17.5352 7.74994C17.6603 7.743 17.7802 7.69618 17.8775 7.61625C18.5976 6.99953 18.9059 6.23664 18.8026 5.32759C18.7946 5.24128 18.7366 5.16776 18.6544 5.14C18.5723 5.11224 18.4816 5.13547 18.4229 5.19925C17.7741 5.89084 17.0094 6.44518 16.1289 6.86228C15.5728 7.12251 15.1325 6.99061 14.8081 6.46657L14.53 6.0174C14.3863 5.78294 14.3485 5.49862 14.4259 5.23474C14.5033 4.97086 14.6888 4.75206 14.9364 4.63244L16.6262 3.79825C16.6868 3.76973 16.7314 3.78577 16.7599 3.84638L16.8347 4.0068C16.8597 4.0674 16.8436 4.11018 16.7866 4.13513L14.9792 4.98536C14.8533 5.04525 14.7592 5.15624 14.7213 5.28959C14.6833 5.42294 14.7052 5.56555 14.7814 5.68051L15.2466 6.38102C15.4533 6.69116 15.71 6.73929 16.0166 6.52539L18.0967 5.08696C18.1725 5.03436 18.2193 4.94925 18.2234 4.85628C18.2276 4.7633 18.1888 4.67283 18.1181 4.61105C18.0112 4.51836 17.8917 4.44706 17.7598 4.39715C17.7115 4.38285 17.6796 4.33669 17.6835 4.28639C17.6874 4.2361 17.7259 4.19534 17.7759 4.18861C17.9078 4.16009 17.9755 4.06918 17.9791 3.91589C17.9783 3.82703 17.9214 3.75046 17.84 3.72874C17.455 3.62179 17.1378 3.42394 16.8882 3.13518C16.7563 2.98189 16.5905 2.91594 16.3909 2.93733C15.0968 3.07279 14.2217 3.72517 13.7654 4.89446C13.6691 5.144 13.6067 5.13687 13.5782 4.87307C13.5247 4.37042 13.6745 3.97471 14.0274 3.68596C15.6922 2.33486 17.1663 2.38833 18.4496 3.84638C18.7922 4.23792 18.9264 4.73213 19.0633 5.23645L19.0633 5.2365C19.1059 5.39337 19.1488 5.55121 19.1983 5.70725C19.2482 5.85698 19.2375 6.00314 19.1662 6.14573L18.5031 7.47722C18.4033 7.67329 18.4621 7.78559 18.6796 7.8141C18.8899 7.84262 19.061 7.76063 19.1929 7.56813C19.364 7.31858 19.4888 7.23659 19.5672 7.32215C19.6385 7.34354 19.6902 7.40236 19.7223 7.49861C19.7544 7.59486 19.8203 7.64299 19.9202 7.64299L25.7808 7.78202C26.0126 7.78915 26.0821 7.68577 25.9894 7.47187C25.0483 5.32937 23.469 4.91585 21.2516 6.23129C22.5403 3.84103 25.7488 5.34363 26.4225 7.49861C26.4712 7.65892 26.566 7.80198 26.6952 7.91036C26.7986 7.99235 26.8806 8.09217 26.9412 8.20981C26.9947 8.31319 27.0125 8.43974 26.9947 8.58947C26.9555 8.91387 26.9501 9.24541 26.9786 9.58408C26.9929 9.76588 27.0856 9.87996 27.2567 9.9263C29.7111 10.6054 31.5025 12.0492 31.3314 14.7763C31.0961 18.4446 27.4225 21.0007 23.9841 21.5514C23.8093 21.5785 23.6581 21.6879 23.5777 21.8455C22.9218 23.1253 21.9896 24.1431 20.7811 24.8989C20.6349 24.9916 20.6046 25.1128 20.6902 25.2625C21.1924 26.1131 21.0017 26.757 20.7723 27.5311L20.7723 27.5313C20.7306 27.6719 20.6877 27.8169 20.6474 27.9682C20.5939 28.1714 20.6242 28.3622 20.7383 28.5404L22.7596 31.7167C22.8665 31.8807 23.018 31.9609 23.2141 31.9574L23.8237 31.9467C23.9372 31.9452 24.0466 31.9884 24.1278 32.0666C24.209 32.1448 24.2555 32.2517 24.2568 32.3638L24.2996 34.2674C24.3039 34.4602 24.2309 34.6467 24.0971 34.7845C23.9632 34.9224 23.7799 35.0001 23.5884 35H7.89933C7.63566 35.001 7.40832 34.8097 7.35924 34.5455C7.22734 33.8218 7.23269 33.0963 7.37529 32.3691C7.41807 32.1552 7.54818 32.0358 7.76564 32.0108L8.5624 31.9146C8.70143 31.8968 8.80837 31.829 8.88324 31.7114L10.9794 28.4388C11.0823 28.276 11.0925 28.0726 11.0061 27.9041C10.5926 27.0628 10.5427 26.209 10.8564 25.3427C10.9348 25.1252 10.876 24.9541 10.6799 24.8293C9.49996 24.0878 8.59448 23.0897 7.96349 21.8348C7.88568 21.6832 7.74347 21.5766 7.57849 21.5461C4.04568 20.9472 1.61085 19.0613 0.274017 15.8886C-0.848925 13.2256 1.68571 10.461 4.1348 9.94235C4.30948 9.90313 4.41286 9.7944 4.44494 9.61616C4.50555 9.28462 4.51089 8.95131 4.46099 8.61621C4.42526 8.38522 4.49491 8.15041 4.65057 7.97711C4.80623 7.80381 5.03128 7.71052 5.26309 7.7232L7.2523 7.81945C7.41826 7.82913 7.57016 7.72346 7.62126 7.56278L8.08648 6.03879C8.14352 5.83915 8.08292 5.68586 7.90467 5.57892C6.35394 4.64848 5.32725 3.33838 6.91007 1.6807C8.09183 0.44012 9.45006 1.15666 10.6158 1.77696C11.0051 1.98494 11.1792 2.44992 11.0222 2.86247L10.2468 4.91584C10.2238 4.97433 10.2284 5.0401 10.2593 5.09571C10.2901 5.15132 10.3443 5.19114 10.4072 5.2046L11.7761 5.5094C11.9401 5.54505 12.0524 5.48266 12.113 5.32224C12.1736 5.16182 12.261 4.9105 12.3751 4.56827C13.1486 2.27248 14.637 1.27252 16.8401 1.56841C18.5031 1.793 20.6474 3.66991 20.2998 5.65378C20.257 5.89619 20.2535 6.1493 20.2891 6.4131C20.3141 6.60561 20.421 6.68403 20.61 6.64838C20.749 6.62699 20.8809 6.58065 21.0057 6.50935ZM8.49823 5.45058C8.71367 5.62908 9.00387 5.68853 9.27214 5.60912C9.54041 5.52971 9.7515 5.32188 9.83506 5.05488L10.5302 2.86247C10.599 2.64256 10.5744 2.40405 10.4622 2.20282C10.3499 2.00159 10.1599 1.85534 9.93666 1.79834L8.26829 1.37056C7.93461 1.28531 7.5827 1.4125 7.38063 1.6914L6.55714 2.81434C6.29758 3.17272 6.36075 3.67104 6.70152 3.95332L8.49823 5.45058ZM12.2093 7.66973L8.53566 7.66438C7.94032 7.66081 7.80842 7.41305 8.13996 6.9211L8.34316 6.6163C8.48888 6.39439 8.74315 6.26624 9.01157 6.27942C9.41084 6.30437 9.74059 6.16178 10.0008 5.85163C10.1336 5.69902 10.336 5.62616 10.5356 5.65913C11.5444 5.83737 12.1665 6.42558 12.4018 7.42375C12.441 7.58773 12.3768 7.66973 12.2093 7.66973ZM26.0589 8.95844C26.0589 8.79305 25.9248 8.65898 25.7594 8.65898H5.65344C5.48806 8.65898 5.35399 8.79305 5.35399 8.95844V9.57873C5.35399 9.65815 5.38554 9.73431 5.4417 9.79047C5.49786 9.84663 5.57402 9.87818 5.65344 9.87818H25.7594C25.8389 9.87818 25.915 9.84663 25.9712 9.79047C26.0273 9.73431 26.0589 9.65815 26.0589 9.57873V8.95844ZM10.8243 10.8781L15.7064 10.83C19.4781 10.8514 23.33 10.8371 27.2621 10.7872C28.3386 10.773 29.2495 11.4236 29.9945 12.739C31.9356 16.1667 27.8663 19.8403 25.0055 20.4713C24.3745 20.6103 23.8558 20.7315 23.4494 20.8349C23.2831 20.8757 23.1429 20.9848 23.0644 21.1343C20.9522 25.086 16.8187 26.1288 12.7868 24.8721C10.8026 24.2542 10.0789 23.2929 9.0772 21.9622L9.07718 21.9622C8.84788 21.6575 8.60401 21.3336 8.32711 20.99C8.2166 20.8545 8.07401 20.7743 7.89933 20.7493C4.8246 20.3055 1.50925 18.2254 1.08147 14.9635C0.867571 13.3165 1.51816 12.0652 3.03325 11.2097C3.97642 10.6739 5.47624 10.7476 6.8568 10.8154C7.4878 10.8464 8.09389 10.8762 8.61052 10.846L10.8243 10.8781ZM12.1719 27.626L12.5622 28.134C12.6977 28.3123 12.662 28.4406 12.4553 28.519C11.5717 28.8608 10.9221 29.9301 10.3594 30.8561C10.2002 31.1183 10.0479 31.369 9.89923 31.5884C9.78872 31.7559 9.8315 31.8611 10.0276 31.9039C10.4482 31.9966 10.7976 31.977 11.0756 31.8451L13.4071 31.8718L15.9845 31.9146L21.5564 31.9092C21.7775 31.9057 21.8292 31.8112 21.7115 31.6258L20.0378 29.0217C19.9522 28.8826 19.8328 28.781 19.6795 28.7169L18.6956 28.3051C18.4318 28.191 18.4425 28.1215 18.7277 28.0966C19.6849 28.0164 20.2945 27.1501 20.0859 26.2945C20.0396 26.1091 19.9202 26.02 19.7276 26.0272L15.915 26.1929L11.8403 26.0272C11.6478 26.02 11.5444 26.1127 11.5302 26.3052C11.4767 27.0075 11.6906 27.4478 12.1719 27.626ZM22.9521 32.8076C23.2179 32.8076 23.4334 33.023 23.4334 33.2888V33.6952C23.4334 33.961 23.2179 34.1765 22.9521 34.1765H8.62122C8.35542 34.1765 8.13996 33.961 8.13996 33.6952V33.2888C8.13996 33.023 8.35542 32.8076 8.62122 32.8076H22.9521Z" fill="#010003"/>
<path id="Path_37" d="M8.49818 5.45055L6.70148 3.9533C6.3607 3.67102 6.29753 3.17269 6.5571 2.81431L7.38059 1.69137C7.58266 1.41247 7.93456 1.28528 8.26825 1.37053L9.93662 1.79832C10.1599 1.85532 10.3499 2.00157 10.4621 2.20279C10.5744 2.40402 10.599 2.64254 10.5302 2.86244L9.83502 5.05485C9.75145 5.32186 9.54036 5.52969 9.27209 5.60909C9.00382 5.6885 8.71362 5.62905 8.49818 5.45055Z" fill="#FED130"/>
<path id="Path_38" d="M19.5671 7.32212C19.4887 7.23656 19.3639 7.31856 19.1928 7.5681C19.0609 7.7606 18.8898 7.8426 18.6795 7.81408C18.462 7.78556 18.4032 7.67326 18.503 7.47719L19.1661 6.14571C19.2374 6.00311 19.2481 5.85695 19.1981 5.70722C18.9896 5.0495 18.8987 4.35969 18.4495 3.84635C17.1662 2.38831 15.6921 2.33483 14.0273 3.68593C13.6743 3.97468 13.5246 4.37039 13.5781 4.87304C13.6066 5.13684 13.669 5.14397 13.7652 4.89443C14.2216 3.72514 15.0967 3.07277 16.3908 2.9373C16.5904 2.91591 16.7562 2.98186 16.8881 3.13515C17.1376 3.42391 17.4549 3.62176 17.8399 3.72871C17.9213 3.75043 17.9782 3.827 17.979 3.91586C17.9754 4.06915 17.9077 4.16006 17.7758 4.18858C17.7258 4.19532 17.6873 4.23607 17.6834 4.28636C17.6795 4.33666 17.7113 4.38282 17.7597 4.39712C17.8916 4.44703 18.011 4.51833 18.118 4.61102C18.1886 4.67281 18.2275 4.76328 18.2233 4.85625C18.2192 4.94923 18.1724 5.03433 18.0966 5.08693L16.0165 6.52537C15.7099 6.73926 15.4532 6.69113 15.2465 6.38099L14.7812 5.68049C14.7051 5.56553 14.6832 5.42291 14.7211 5.28956C14.7591 5.15621 14.8532 5.04522 14.9791 4.98533L16.7865 4.1351C16.8435 4.11015 16.8596 4.06737 16.8346 4.00677L16.7598 3.84635C16.7312 3.78575 16.6867 3.7697 16.6261 3.79822L14.9363 4.63241C14.6887 4.75203 14.5032 4.97083 14.4258 5.23471C14.3484 5.49859 14.3862 5.78291 14.5299 6.01737L14.808 6.46655C15.1324 6.99059 15.5726 7.12249 16.1288 6.86225C17.0093 6.44516 17.774 5.89082 18.4228 5.19923C18.4815 5.13544 18.5722 5.11222 18.6543 5.13997C18.7364 5.16773 18.7945 5.24125 18.8024 5.32756C18.9058 6.23661 18.5975 6.9995 17.8774 7.61622C17.7801 7.69615 17.6602 7.74297 17.5351 7.74991L14.9898 7.85151C14.7236 7.86432 14.4723 7.72838 14.3374 7.49858L13.3695 5.8516C13.3617 5.83717 13.3527 5.82434 13.3446 5.81622C13.3364 5.8081 13.33 5.80542 13.3268 5.80882L13.2145 5.88369C13.1985 5.89356 13.1917 5.91186 13.1984 5.92646L13.8936 7.43976C13.972 7.60731 13.9239 7.72317 13.7492 7.78734C13.4711 7.89429 13.259 7.82655 13.1129 7.58414C11.0328 4.10837 15.6475 0.0336934 18.8238 3.15119C19.8969 4.20284 20.1446 5.59315 19.5671 7.32212Z" fill="#FED130"/>
<path id="Path_39" d="M19.5674 7.32213L20.4497 7.26331C20.6172 7.25261 20.7545 7.1831 20.8614 7.05476C21.0005 6.89078 21.0486 6.70897 21.0058 6.50933L21.2518 6.23127C23.4692 4.91582 25.0484 5.32935 25.9895 7.47185C26.0822 7.68575 26.0127 7.78913 25.781 7.782L19.9203 7.64297C19.8205 7.64297 19.7545 7.59484 19.7225 7.49859C19.6904 7.40234 19.6387 7.34352 19.5674 7.32213Z" fill="#FED130"/>
<path id="Path_40" d="M12.2091 7.66971L8.5355 7.66436C7.94016 7.6608 7.80826 7.41304 8.1398 6.92108L8.34299 6.61628C8.48872 6.39437 8.74299 6.26622 9.01141 6.2794C9.41068 6.30436 9.74043 6.16176 10.0007 5.85161C10.1334 5.69901 10.3358 5.62614 10.5354 5.65911C11.5443 5.83735 12.1663 6.42556 12.4016 7.42373C12.4408 7.58772 12.3767 7.66971 12.2091 7.66971Z" fill="#FED130"/>
<rect id="Rectangle" x="5.354" y="8.659" width="20.7049" height="1.21919" rx="0.56" fill="#FED94F"/>
<path id="Path_41" d="M8.61074 10.846L9.28451 16.2683C8.81394 16.336 8.29525 16.3039 7.72843 16.172C7.53593 16.1257 7.42185 16.0045 7.3862 15.8084L6.80869 12.3219C6.7766 12.1437 6.67144 12.0421 6.49319 12.0171C5.31678 11.8674 4.12967 11.7979 3.17784 12.5893C-0.0412581 15.2576 4.9692 18.9312 7.50384 19.5515C7.69635 19.5979 7.81755 19.5266 7.86746 19.3376L7.92093 19.1344C7.96371 18.9776 8.06709 18.9045 8.23108 18.9152C8.91197 18.9544 9.40037 19.0613 9.69625 19.236C10.3201 22.0131 12.115 23.6226 15.081 24.0647C15.5837 24.136 15.8457 23.9185 15.8671 23.4123C15.8742 23.1948 15.7245 23.0736 15.4179 23.0487C15.6639 22.391 15.8083 22.1076 15.7174 21.3108C15.6496 20.6762 15.8279 20.0666 16.2521 19.482L23.3801 18.9473C23.512 18.9401 23.594 18.999 23.6261 19.1237L23.6902 19.359C23.7274 19.4934 23.8627 19.5741 23.995 19.5408C26.5404 18.8938 31.6043 15.2897 28.3852 12.5893C27.4387 11.7872 26.2463 11.8834 25.0699 11.9797C24.856 11.9975 24.7312 12.1116 24.6955 12.3219L24.1448 15.8405C24.1218 15.9874 24.0079 16.1035 23.8614 16.1292C21.2875 16.5784 18.662 16.7513 15.9847 16.6479L15.7067 10.83C19.4783 10.8514 23.3302 10.8371 27.2623 10.7872C28.3389 10.773 29.2497 11.4236 29.9948 12.739C31.9358 16.1667 27.8665 19.8403 25.0057 20.4713C24.3747 20.6103 23.856 20.7315 23.4496 20.8349C23.2833 20.8757 23.1431 20.9848 23.0646 21.1343C20.9524 25.086 16.8189 26.1288 12.787 24.8721C10.3486 24.1128 9.81389 22.8348 8.32733 20.99C8.21682 20.8545 8.07423 20.7743 7.89955 20.7493C4.82482 20.3055 1.50947 18.2254 1.08168 14.9635C0.86779 13.3165 1.51838 12.0652 3.03346 11.2097C4.40773 10.429 6.96376 10.9423 8.61074 10.846Z" fill="#FFA91C"/>
<path id="Path_42" d="M8.61035 10.8461L10.8242 10.8782L11.3321 16.5143L9.28412 16.2683L8.61035 10.8461Z" fill="#FEFFFD"/>
<path id="Path_43" d="M15.7063 10.83L15.9844 16.6479L11.3322 16.5142L10.8242 10.8781L15.7063 10.83Z" fill="#FED94F"/>
<path id="Shape_2" fill-rule="evenodd" clip-rule="evenodd" d="M11.3324 16.5142L9.28439 16.2683C8.81382 16.336 8.29513 16.3039 7.72831 16.172C7.53581 16.1257 7.42173 16.0045 7.38608 15.8084L6.80857 12.3219C6.77649 12.1437 6.67132 12.0421 6.49308 12.0171C5.31666 11.8674 4.12955 11.7979 3.17772 12.5893C-0.0413756 15.2576 4.96908 18.9312 7.50372 19.5515C7.69623 19.5979 7.81743 19.5266 7.86734 19.3376L7.92082 19.1344C7.9636 18.9776 8.06698 18.9045 8.23096 18.9152C8.91186 18.9544 9.40025 19.0614 9.69613 19.236L12.1345 19.3965L16.252 19.482L23.38 18.9473C23.5119 18.9402 23.5939 18.999 23.626 19.1237L23.6901 19.359C23.7272 19.4934 23.8625 19.5741 23.9949 19.5408C26.5403 18.8938 31.6042 15.2897 28.3851 12.5893C27.4386 11.7872 26.2462 11.8834 25.0697 11.9797C24.8558 11.9975 24.7311 12.1116 24.6954 12.3219L24.1447 15.8405C24.1217 15.9875 24.0078 16.1036 23.8612 16.1292C21.2874 16.5784 18.6618 16.7513 15.9846 16.6479L11.3324 16.5142ZM6.69093 18.3537C5.20971 17.8511 1.99596 15.418 3.44509 13.5946C4.05469 12.8317 4.83362 12.5679 5.78188 12.8032C5.94421 12.8448 6.06751 12.9786 6.09737 13.1454L6.90482 18.1719C6.93691 18.3537 6.86561 18.4143 6.69093 18.3537ZM24.674 18.1184C24.6635 18.1882 24.691 18.2584 24.7461 18.3024C24.8012 18.3465 24.8756 18.3579 24.9414 18.3323C26.4529 17.7334 27.5741 16.7157 28.3049 15.279C28.5118 14.8707 28.54 14.3949 28.3828 13.9658C28.2256 13.5367 27.897 13.193 27.476 13.0171L27.0429 12.8353C26.0804 12.4289 25.5189 12.7426 25.3585 13.7764L24.674 18.1184ZM23.396 18.3805C19.5566 18.8796 15.6495 18.9794 11.6747 18.6799L8.0545 18.3323C7.90386 18.319 7.78212 18.2039 7.7604 18.0543L7.59998 16.9902C7.58881 16.9261 7.60972 16.8608 7.65624 16.8142C7.70276 16.7677 7.76929 16.7457 7.83526 16.7549L11.3805 17.2308C12.136 17.2298 12.8847 17.2358 13.6299 17.2419C16.8883 17.2682 20.0786 17.2939 23.4602 16.7281C23.8915 16.6533 24.0591 16.8297 23.9628 17.2575L23.7917 18.0168C23.7418 18.2307 23.6099 18.3519 23.396 18.3805Z" fill="#010003"/>
<path id="Path_44" d="M11.3807 17.2308C11.8406 17.2058 11.9386 17.6889 11.6748 18.6799L8.05464 18.3323C7.904 18.319 7.78226 18.2039 7.76054 18.0543L7.60012 16.9901C7.58895 16.9261 7.60986 16.8608 7.65638 16.8142C7.7029 16.7677 7.76943 16.7457 7.8354 16.7549L11.3807 17.2308Z" fill="#FFFDD8"/>
<path id="Path_45" d="M11.6745 18.6799C11.9383 17.6889 11.8402 17.2058 11.3804 17.2308C15.439 17.2255 19.3051 17.4233 23.46 16.7282C23.8914 16.6533 24.0589 16.8297 23.9627 17.2575L23.7916 18.0169C23.7416 18.2308 23.6097 18.352 23.3958 18.3805C19.5565 18.8796 15.6493 18.9794 11.6745 18.6799Z" fill="#FFA91C"/>
<path id="Path_46" d="M9.6958 19.236L12.1342 19.3964C11.669 21.3054 13.7865 22.9524 15.4175 23.0487C15.724 23.0736 15.8738 23.1948 15.8666 23.4123C15.8452 23.9185 15.5832 24.136 15.0806 24.0647C12.1146 23.6226 10.3197 22.0131 9.6958 19.236Z" fill="#FEFFFD"/>
<path id="Path_47" d="M12.1346 19.3964L16.2521 19.482C15.8279 20.0666 15.6496 20.6762 15.7173 21.3108C15.8083 22.1075 15.6639 22.3909 15.4179 23.0487C13.787 22.9524 11.6694 21.3054 12.1346 19.3964Z" fill="#FED94F"/>
<path id="Shape_3" fill-rule="evenodd" clip-rule="evenodd" d="M27.8052 29.4111C29.1681 28.8128 29.8716 27.4137 29.3766 26.2861C28.8816 25.1585 27.3755 24.7293 26.0126 25.3276C24.6497 25.9259 23.9462 27.325 24.4411 28.4526C24.9361 29.5802 26.4423 30.0094 27.8052 29.4111ZM26.3093 25.7558C27.4969 25.2976 28.7327 25.6342 29.0698 26.5076C29.2316 26.927 29.1603 27.4167 28.8715 27.8689C28.5827 28.321 28.1001 28.6987 27.5298 28.9187C26.3423 29.377 25.1064 29.0404 24.7694 28.167C24.6076 27.7475 24.6789 27.2579 24.9677 26.8057C25.2565 26.3535 25.7391 25.9758 26.3093 25.7558Z" fill="#010003"/>
<path id="Shape_4" fill-rule="evenodd" clip-rule="evenodd" d="M3.70534 30.5953C4.33508 30.9516 5.13441 30.7299 5.49071 30.1002L6.60189 28.1362C6.95818 27.5064 6.73651 26.7071 6.10678 26.3508L4.75706 25.5872C4.12732 25.2309 3.32798 25.4526 2.97169 26.0823L1.86051 28.0463C1.50422 28.6761 1.72588 29.4754 2.35562 29.8317L3.70534 30.5953ZM5.71878 26.5776C6.22721 26.8665 6.40523 27.5128 6.1164 28.0212L5.13383 29.7508C4.845 30.2592 4.19869 30.4372 3.69026 30.1484L2.65806 29.5621C2.14963 29.2733 1.97161 28.627 2.26044 28.1185L3.24301 26.3889C3.53184 25.8805 4.17815 25.7025 4.68658 25.9913L5.71878 26.5776Z" fill="#010003"/>
<ellipse id="Oval" cx="26.9196" cy="27.3372" rx="2.3047" ry="1.69511" transform="rotate(-21.1 26.9196 27.3372)" fill="#FED130"/>
<path id="Rectangle_2" d="M2.94947 26.905C3.40022 26.1115 4.40885 25.8337 5.20232 26.2844V26.2844C5.99578 26.7352 6.2736 27.7438 5.82285 28.5373L5.42666 29.2347C4.97591 30.0281 3.96728 30.306 3.17382 29.8552V29.8552C2.38035 29.4045 2.10253 28.3958 2.55328 27.6024L2.94947 26.905Z" fill="#FED130"/>
<path id="Path_48" d="M15.9148 26.1929C16.2713 27.3301 15.0236 27.8078 12.1717 27.626C11.6904 27.4478 11.4765 27.0075 11.53 26.3052C11.5443 26.1127 11.6476 26.02 11.8401 26.0272L15.9148 26.1929Z" fill="#FED94F"/>
<path id="Path_49" d="M15.9844 31.9146C15.7562 30.9841 15.7045 30.0323 15.8293 29.0591C15.8493 28.8881 15.7622 28.7225 15.6101 28.642C15.1823 28.421 14.7777 28.535 14.3962 28.9842L13.1182 29.1072C12.94 29.125 12.8027 29.2088 12.7065 29.3585L11.0755 31.845C10.7975 31.9769 10.4481 31.9965 10.0274 31.9039C9.83138 31.8611 9.7886 31.7559 9.89911 31.5884C10.5729 30.5938 11.3215 28.9575 12.4551 28.519C12.6619 28.4406 12.6976 28.3122 12.5621 28.134L12.1717 27.626C15.0236 27.8078 16.2714 27.3301 15.9149 26.1929L19.7275 26.0271C19.92 26.02 20.0395 26.1091 20.0858 26.2945C20.2943 27.1501 19.6847 28.0163 18.7276 28.0966C18.4424 28.1215 18.4317 28.191 18.6955 28.3051L19.6794 28.7168C19.8327 28.781 19.9521 28.8826 20.0377 29.0216L21.7114 31.6258C21.829 31.8112 21.7773 31.9056 21.5563 31.9092L15.9844 31.9146Z" fill="#FFA91C"/>
<path id="Path_50" d="M15.9846 31.9146L13.4072 31.8718L14.3965 28.9842C14.7779 28.535 15.1825 28.421 15.6103 28.642C15.7625 28.7225 15.8495 28.8881 15.8296 29.0591C15.7048 30.0323 15.7565 30.9841 15.9846 31.9146Z" fill="#FED94F"/>
<path id="Path_51" d="M14.3964 28.9843L13.4071 31.8718L11.0757 31.8451L12.7066 29.3586C12.8029 29.2088 12.9401 29.1251 13.1184 29.1072L14.3964 28.9843Z" fill="#FEFFFD"/>
<rect id="Rectangle_3" x="8.14014" y="32.8076" width="15.2934" height="1.36892" rx="0.68446" fill="#FED94F"/>
</g>
<defs>
<filter id="filter0_d_1_2885" x="0" y="0.84436" width="31.3428" height="36.1556" filterUnits="userSpaceOnUse" color-interpolation-filters="sRGB">
<feFlood flood-opacity="0" result="BackgroundImageFix"/>
<feColorMatrix in="SourceAlpha" type="matrix" values="0 0 0 0 0 0 0 0 0 0 0 0 0 0 0 0 0 0 127 0" result="hardAlpha"/>
<feOffset dy="2"/>
<feColorMatrix type="matrix" values="0 0 0 0 0 0 0 0 0 0 0 0 0 0 0 0 0 0 1 0"/>
<feBlend mode="normal" in2="BackgroundImageFix" result="effect1_dropShadow_1_2885"/>
<feBlend mode="normal" in="SourceGraphic" in2="effect1_dropShadow_1_2885" result="shape"/>
</filter>
</defs>
</svg>
